# xmcd
#
# Track frame offsets:
#	150
#	11955
#	28390
#	41435
#	55212
#	71197
#	80460
#	95270
#	107027
#	122665
#	133667
#	147615
#
# Disc length: 2155
#
# Revision: 0
# Processed by: cddbd v1.5.1PL2 Copyright (c) Steve Scherf et al.
# Submitted via: Broken Cross Disk Manager 3.81.2155
#
DISCID=b008690c
DTITLE=Various Artist - Das grosse Blasmusikvergnügen CD 2
DYEAR=1900
DGENRE=
TTITLE0=Sarganserländer Musikanten - Musik und gute Laune
TTITLE1=Werkskapelle Metallwerk Plansee - Unter dem Doppeladler
TTITLE2=Orch. Vaclav Maly-Karel - Rauschende Birken
TTITLE3=Stadtmusikkapelle Wilten - Übers Land
TTITLE4=Trachtenkapelle Oberndorf - Rusalka
TTITLE5=Asslinger Musikanten - Klarinettenmuckel
TTITLE6=Kleinraminger Blasmusik - Aus Böhmen kommt die Musik
TTITLE7=Orig. Tiroler Kaiserjägermusik - Wagramer Grenadier-Marsch
TTITLE8=Kapelle Romantica - Der Zauber der Berge im Alpenland
TTITLE9=Härtsfelder Musikanten - Gute Freunde
TTITLE10=Musikkorps Garmisch Partenkirchen - In der Dorfschänke
TTITLE11=Oberpfälzer Blasmusik - Zillertaler Hochzeitsmarsch
EXTD=
EXTT0=
EXTT1=
EXTT2=
EXTT3=
EXTT4=
EXTT5=
EXTT6=
EXTT7=
EXTT8=
EXTT9=
EXTT10=
EXTT11=
PLAYORDER=
